# xmcd CD database file
#
# Track frame offsets:
#	150
#	11678
#	20733
#	42271
#	54844
#	68782
#	82003
#	96666
#	118497
#	131328
#
# Disc length: 1957 seconds
#
# Revision: 0
# Processed by: cddbd v1.5.2PL0 Copyright (c) Steve Scherf et al.
# Submitted via: CDex 1.51
#
DISCID=8a07a30a
DTITLE=Chillout Jumpers - Chill and Jump Blues
DYEAR=2004
DGENRE=Blues
TTITLE0=Certainly All
TTITLE1=That's It
TTITLE2=Information Blues
TTITLE3=Whoopin And Hollerin
TTITLE4=Hangman's Blues
TTITLE5=Lawdy Mama
TTITLE6=Get On The Right Track
TTITLE7=Stormy Monday
TTITLE8=Don't Treat Me Like That
TTITLE9=Poor Old Boy
EXTD=YEAR: 2004
EXTT0=
EXTT1=
EXTT2=
EXTT3=
EXTT4=
EXTT5=
EXTT6=
EXTT7=
EXTT8=
EXTT9=
PLAYORDER=
